<svg width="10" height="16" viewBox="0 0 10 16" fill="none" xmlns="http://www.w3.org/2000/svg">
<path d="M4.0338 0.87689L4.0338 12.4521L1.49075 9.9091C1.13999 9.55833 0.613839 9.55833 0.263074 9.9091C-0.0876916 10.2599 -0.0876915 10.786 0.263074 11.1368L4.29688 15.1706C4.64764 15.5213 5.17379 15.5213 5.52455 15.1706L9.55836 11.1368C9.90912 10.786 9.90912 10.2599 9.55836 9.9091C9.20759 9.55833 8.68144 9.55833 8.33068 9.9091L5.78763 12.4521L5.78763 0.87689C5.78763 0.438433 5.43686 -2.31258e-05 4.91071 -2.31028e-05C4.38457 -2.30798e-05 4.0338 0.438433 4.0338 0.87689Z" fill="#458FF6"/>
</svg>
