<svg width="1886" height="792" viewBox="0 0 1886 792" fill="none" xmlns="http://www.w3.org/2000/svg">
<g opacity="0.6" clip-path="url(#clip0)">
<path d="M1798 493.364C1748.38 553.026 1646.06 479.618 1501.04 516.048C1375.44 547.615 1369.9 624.023 1268.94 622.53C1195.18 621.453 1113.91 580.72 1068.1 507.585C1017.57 426.949 1033.38 343.33 1037.88 323.024C1058 231.945 1122.73 182.674 1145.57 165.829C1239.7 96.467 1347.3 105.808 1398.93 110.263C1592.83 127.062 1803.04 260.461 1815.67 410.389C1817.34 430.017 1820.4 466.423 1798 493.364Z" fill="url(#paint0_linear)"/>
</g>
<g opacity="0.3">
<mask id="mask0" mask-type="alpha" maskUnits="userSpaceOnUse" x="0" y="140" width="11" height="11">
<path d="M5.22838 150.425C8.11594 150.425 10.4568 148.091 10.4568 145.213C10.4568 142.334 8.11594 140 5.22838 140C2.34082 140 0 142.334 0 145.213C0 148.091 2.34082 150.425 5.22838 150.425Z" fill="url(#paint1_linear)"/>
</mask>
<g mask="url(#mask0)">
<path d="M5.22838 150.425C8.11594 150.425 10.4568 148.091 10.4568 145.213C10.4568 142.334 8.11594 140 5.22838 140C2.34082 140 0 142.334 0 145.213C0 148.091 2.34082 150.425 5.22838 150.425Z" fill="url(#paint2_linear)"/>
</g>
<mask id="mask1" mask-type="alpha" maskUnits="userSpaceOnUse" x="30" y="140" width="11" height="11">
<path d="M35.5095 150.425C38.397 150.425 40.7378 148.091 40.7378 145.213C40.7378 142.334 38.397 140 35.5095 140C32.6219 140 30.2811 142.334 30.2811 145.213C30.2811 148.091 32.6219 150.425 35.5095 150.425Z" fill="url(#paint3_linear)"/>
</mask>
<g mask="url(#mask1)">
<path d="M35.5095 150.425C38.397 150.425 40.7378 148.091 40.7378 145.213C40.7378 142.334 38.397 140 35.5095 140C32.6219 140 30.2811 142.334 30.2811 145.213C30.2811 148.091 32.6219 150.425 35.5095 150.425Z" fill="url(#paint4_linear)"/>
</g>
<mask id="mask2" mask-type="alpha" maskUnits="userSpaceOnUse" x="60" y="140" width="12" height="11">
<path d="M65.7905 150.425C68.6781 150.425 71.0189 148.091 71.0189 145.213C71.0189 142.334 68.6781 140 65.7905 140C62.903 140 60.5621 142.334 60.5621 145.213C60.5621 148.091 62.903 150.425 65.7905 150.425Z" fill="url(#paint5_linear)"/>
</mask>
<g mask="url(#mask2)">
<path d="M65.7905 150.425C68.6781 150.425 71.0189 148.091 71.0189 145.213C71.0189 142.334 68.6781 140 65.7905 140C62.903 140 60.5621 142.334 60.5621 145.213C60.5621 148.091 62.903 150.425 65.7905 150.425Z" fill="url(#paint6_linear)"/>
</g>
<mask id="mask3" mask-type="alpha" maskUnits="userSpaceOnUse" x="90" y="140" width="12" height="11">
<path d="M96.0716 150.425C98.9592 150.425 101.3 148.091 101.3 145.213C101.3 142.334 98.9592 140 96.0716 140C93.184 140 90.8432 142.334 90.8432 145.213C90.8432 148.091 93.184 150.425 96.0716 150.425Z" fill="url(#paint7_linear)"/>
</mask>
<g mask="url(#mask3)">
<path d="M96.0716 150.425C98.9592 150.425 101.3 148.091 101.3 145.213C101.3 142.334 98.9592 140 96.0716 140C93.184 140 90.8432 142.334 90.8432 145.213C90.8432 148.091 93.184 150.425 96.0716 150.425Z" fill="url(#paint8_linear)"/>
</g>
<mask id="mask4" mask-type="alpha" maskUnits="userSpaceOnUse" x="121" y="140" width="11" height="11">
<path d="M126.353 150.425C129.24 150.425 131.581 148.091 131.581 145.213C131.581 142.334 129.24 140 126.353 140C123.465 140 121.124 142.334 121.124 145.213C121.124 148.091 123.465 150.425 126.353 150.425Z" fill="url(#paint9_linear)"/>
</mask>
<g mask="url(#mask4)">
<path d="M126.353 150.425C129.24 150.425 131.581 148.091 131.581 145.213C131.581 142.334 129.24 140 126.353 140C123.465 140 121.124 142.334 121.124 145.213C121.124 148.091 123.465 150.425 126.353 150.425Z" fill="url(#paint10_linear)"/>
</g>
<mask id="mask5" mask-type="alpha" maskUnits="userSpaceOnUse" x="0" y="166" width="11" height="11">
<path d="M5.22838 176.596C8.11594 176.596 10.4568 174.262 10.4568 171.383C10.4568 168.505 8.11594 166.171 5.22838 166.171C2.34082 166.171 0 168.505 0 171.383C0 174.262 2.34082 176.596 5.22838 176.596Z" fill="url(#paint11_linear)"/>
</mask>
<g mask="url(#mask5)">
<path d="M5.22838 176.596C8.11594 176.596 10.4568 174.262 10.4568 171.383C10.4568 168.505 8.11594 166.171 5.22838 166.171C2.34082 166.171 0 168.505 0 171.383C0 174.262 2.34082 176.596 5.22838 176.596Z" fill="url(#paint12_linear)"/>
</g>
<mask id="mask6" mask-type="alpha" maskUnits="userSpaceOnUse" x="30" y="166" width="11" height="11">
<path d="M35.5095 176.596C38.397 176.596 40.7378 174.262 40.7378 171.383C40.7378 168.505 38.397 166.171 35.5095 166.171C32.6219 166.171 30.2811 168.505 30.2811 171.383C30.2811 174.262 32.6219 176.596 35.5095 176.596Z" fill="url(#paint13_linear)"/>
</mask>
<g mask="url(#mask6)">
<path d="M35.5095 176.596C38.397 176.596 40.7378 174.262 40.7378 171.383C40.7378 168.505 38.397 166.171 35.5095 166.171C32.6219 166.171 30.2811 168.505 30.2811 171.383C30.2811 174.262 32.6219 176.596 35.5095 176.596Z" fill="url(#paint14_linear)"/>
</g>
<mask id="mask7" mask-type="alpha" maskUnits="userSpaceOnUse" x="60" y="166" width="12" height="11">
<path d="M65.7905 176.596C68.6781 176.596 71.0189 174.262 71.0189 171.383C71.0189 168.505 68.6781 166.171 65.7905 166.171C62.903 166.171 60.5621 168.505 60.5621 171.383C60.5621 174.262 62.903 176.596 65.7905 176.596Z" fill="url(#paint15_linear)"/>
</mask>
<g mask="url(#mask7)">
<path d="M65.7905 176.596C68.6781 176.596 71.0189 174.262 71.0189 171.383C71.0189 168.505 68.6781 166.171 65.7905 166.171C62.903 166.171 60.5621 168.505 60.5621 171.383C60.5621 174.262 62.903 176.596 65.7905 176.596Z" fill="url(#paint16_linear)"/>
</g>
<mask id="mask8" mask-type="alpha" maskUnits="userSpaceOnUse" x="90" y="166" width="12" height="11">
<path d="M96.0716 176.596C98.9592 176.596 101.3 174.262 101.3 171.383C101.3 168.505 98.9592 166.171 96.0716 166.171C93.184 166.171 90.8432 168.505 90.8432 171.383C90.8432 174.262 93.184 176.596 96.0716 176.596Z" fill="url(#paint17_linear)"/>
</mask>
<g mask="url(#mask8)">
<path d="M96.0716 176.596C98.9592 176.596 101.3 174.262 101.3 171.383C101.3 168.505 98.9592 166.171 96.0716 166.171C93.184 166.171 90.8432 168.505 90.8432 171.383C90.8432 174.262 93.184 176.596 96.0716 176.596Z" fill="url(#paint18_linear)"/>
</g>
<mask id="mask9" mask-type="alpha" maskUnits="userSpaceOnUse" x="121" y="166" width="11" height="11">
<path d="M126.353 176.596C129.24 176.596 131.581 174.262 131.581 171.383C131.581 168.505 129.24 166.171 126.353 166.171C123.465 166.171 121.124 168.505 121.124 171.383C121.124 174.262 123.465 176.596 126.353 176.596Z" fill="url(#paint19_linear)"/>
</mask>
<g mask="url(#mask9)">
<path d="M126.353 176.596C129.24 176.596 131.581 174.262 131.581 171.383C131.581 168.505 129.24 166.171 126.353 166.171C123.465 166.171 121.124 168.505 121.124 171.383C121.124 174.262 123.465 176.596 126.353 176.596Z" fill="url(#paint20_linear)"/>
</g>
<mask id="mask10" mask-type="alpha" maskUnits="userSpaceOnUse" x="0" y="192" width="11" height="11">
<path d="M5.22838 202.713C8.11594 202.713 10.4568 200.379 10.4568 197.5C10.4568 194.621 8.11594 192.288 5.22838 192.288C2.34082 192.288 0 194.621 0 197.5C0 200.379 2.34082 202.713 5.22838 202.713Z" fill="url(#paint21_linear)"/>
</mask>
<g mask="url(#mask10)">
<path d="M5.22838 202.713C8.11594 202.713 10.4568 200.379 10.4568 197.5C10.4568 194.621 8.11594 192.288 5.22838 192.288C2.34082 192.288 0 194.621 0 197.5C0 200.379 2.34082 202.713 5.22838 202.713Z" fill="url(#paint22_linear)"/>
</g>
<mask id="mask11" mask-type="alpha" maskUnits="userSpaceOnUse" x="30" y="192" width="11" height="11">
<path d="M35.5095 202.713C38.397 202.713 40.7378 200.379 40.7378 197.5C40.7378 194.621 38.397 192.288 35.5095 192.288C32.6219 192.288 30.2811 194.621 30.2811 197.5C30.2811 200.379 32.6219 202.713 35.5095 202.713Z" fill="url(#paint23_linear)"/>
</mask>
<g mask="url(#mask11)">
<path d="M35.5095 202.713C38.397 202.713 40.7378 200.379 40.7378 197.5C40.7378 194.621 38.397 192.288 35.5095 192.288C32.6219 192.288 30.2811 194.621 30.2811 197.5C30.2811 200.379 32.6219 202.713 35.5095 202.713Z" fill="url(#paint24_linear)"/>
</g>
<mask id="mask12" mask-type="alpha" maskUnits="userSpaceOnUse" x="60" y="192" width="12" height="11">
<path d="M65.7905 202.713C68.6781 202.713 71.0189 200.379 71.0189 197.5C71.0189 194.621 68.6781 192.288 65.7905 192.288C62.903 192.288 60.5621 194.621 60.5621 197.5C60.5621 200.379 62.903 202.713 65.7905 202.713Z" fill="url(#paint25_linear)"/>
</mask>
<g mask="url(#mask12)">
<path d="M65.7905 202.713C68.6781 202.713 71.0189 200.379 71.0189 197.5C71.0189 194.621 68.6781 192.288 65.7905 192.288C62.903 192.288 60.5621 194.621 60.5621 197.5C60.5621 200.379 62.903 202.713 65.7905 202.713Z" fill="url(#paint26_linear)"/>
</g>
<mask id="mask13" mask-type="alpha" maskUnits="userSpaceOnUse" x="90" y="192" width="12" height="11">
<path d="M96.0716 202.713C98.9592 202.713 101.3 200.379 101.3 197.5C101.3 194.621 98.9592 192.288 96.0716 192.288C93.184 192.288 90.8432 194.621 90.8432 197.5C90.8432 200.379 93.184 202.713 96.0716 202.713Z" fill="url(#paint27_linear)"/>
</mask>
<g mask="url(#mask13)">
<path d="M96.0716 202.713C98.9592 202.713 101.3 200.379 101.3 197.5C101.3 194.621 98.9592 192.288 96.0716 192.288C93.184 192.288 90.8432 194.621 90.8432 197.5C90.8432 200.379 93.184 202.713 96.0716 202.713Z" fill="url(#paint28_linear)"/>
</g>
<mask id="mask14" mask-type="alpha" maskUnits="userSpaceOnUse" x="121" y="192" width="11" height="11">
<path d="M126.353 202.713C129.24 202.713 131.581 200.379 131.581 197.5C131.581 194.621 129.24 192.288 126.353 192.288C123.465 192.288 121.124 194.621 121.124 197.5C121.124 200.379 123.465 202.713 126.353 202.713Z" fill="url(#paint29_linear)"/>
</mask>
<g mask="url(#mask14)">
<path d="M126.353 202.713C129.24 202.713 131.581 200.379 131.581 197.5C131.581 194.621 129.24 192.288 126.353 192.288C123.465 192.288 121.124 194.621 121.124 197.5C121.124 200.379 123.465 202.713 126.353 202.713Z" fill="url(#paint30_linear)"/>
</g>
<mask id="mask15" mask-type="alpha" maskUnits="userSpaceOnUse" x="0" y="218" width="11" height="11">
<path d="M5.22838 228.883C8.11594 228.883 10.4568 226.55 10.4568 223.671C10.4568 220.792 8.11594 218.458 5.22838 218.458C2.34082 218.458 0 220.792 0 223.671C0 226.55 2.34082 228.883 5.22838 228.883Z" fill="url(#paint31_linear)"/>
</mask>
<g mask="url(#mask15)">
<path d="M5.22838 228.883C8.11594 228.883 10.4568 226.55 10.4568 223.671C10.4568 220.792 8.11594 218.458 5.22838 218.458C2.34082 218.458 0 220.792 0 223.671C0 226.55 2.34082 228.883 5.22838 228.883Z" fill="url(#paint32_linear)"/>
</g>
<mask id="mask16" mask-type="alpha" maskUnits="userSpaceOnUse" x="30" y="218" width="11" height="11">
<path d="M35.5095 228.883C38.397 228.883 40.7378 226.55 40.7378 223.671C40.7378 220.792 38.397 218.458 35.5095 218.458C32.6219 218.458 30.2811 220.792 30.2811 223.671C30.2811 226.55 32.6219 228.883 35.5095 228.883Z" fill="url(#paint33_linear)"/>
</mask>
<g mask="url(#mask16)">
<path d="M35.5095 228.883C38.397 228.883 40.7378 226.55 40.7378 223.671C40.7378 220.792 38.397 218.458 35.5095 218.458C32.6219 218.458 30.2811 220.792 30.2811 223.671C30.2811 226.55 32.6219 228.883 35.5095 228.883Z" fill="url(#paint34_linear)"/>
</g>
<mask id="mask17" mask-type="alpha" maskUnits="userSpaceOnUse" x="60" y="218" width="12" height="11">
<path d="M65.7905 228.883C68.6781 228.883 71.0189 226.55 71.0189 223.671C71.0189 220.792 68.6781 218.458 65.7905 218.458C62.903 218.458 60.5621 220.792 60.5621 223.671C60.5621 226.55 62.903 228.883 65.7905 228.883Z" fill="url(#paint35_linear)"/>
</mask>
<g mask="url(#mask17)">
<path d="M65.7905 228.883C68.6781 228.883 71.0189 226.55 71.0189 223.671C71.0189 220.792 68.6781 218.458 65.7905 218.458C62.903 218.458 60.5621 220.792 60.5621 223.671C60.5621 226.55 62.903 228.883 65.7905 228.883Z" fill="url(#paint36_linear)"/>
</g>
<mask id="mask18" mask-type="alpha" maskUnits="userSpaceOnUse" x="90" y="218" width="12" height="11">
<path d="M96.0716 228.883C98.9592 228.883 101.3 226.55 101.3 223.671C101.3 220.792 98.9592 218.458 96.0716 218.458C93.184 218.458 90.8432 220.792 90.8432 223.671C90.8432 226.55 93.184 228.883 96.0716 228.883Z" fill="url(#paint37_linear)"/>
</mask>
<g mask="url(#mask18)">
<path d="M96.0716 228.883C98.9592 228.883 101.3 226.55 101.3 223.671C101.3 220.792 98.9592 218.458 96.0716 218.458C93.184 218.458 90.8432 220.792 90.8432 223.671C90.8432 226.55 93.184 228.883 96.0716 228.883Z" fill="url(#paint38_linear)"/>
</g>
<mask id="mask19" mask-type="alpha" maskUnits="userSpaceOnUse" x="121" y="218" width="11" height="11">
<path d="M126.353 228.883C129.24 228.883 131.581 226.55 131.581 223.671C131.581 220.792 129.24 218.458 126.353 218.458C123.465 218.458 121.124 220.792 121.124 223.671C121.124 226.55 123.465 228.883 126.353 228.883Z" fill="url(#paint39_linear)"/>
</mask>
<g mask="url(#mask19)">
<path d="M126.353 228.883C129.24 228.883 131.581 226.55 131.581 223.671C131.581 220.792 129.24 218.458 126.353 218.458C123.465 218.458 121.124 220.792 121.124 223.671C121.124 226.55 123.465 228.883 126.353 228.883Z" fill="url(#paint40_linear)"/>
</g>
<mask id="mask20" mask-type="alpha" maskUnits="userSpaceOnUse" x="0" y="244" width="11" height="11">
<path d="M5.22838 255C8.11594 255 10.4568 252.666 10.4568 249.788C10.4568 246.909 8.11594 244.575 5.22838 244.575C2.34082 244.575 0 246.909 0 249.788C0 252.666 2.34082 255 5.22838 255Z" fill="url(#paint41_linear)"/>
</mask>
<g mask="url(#mask20)">
<path d="M5.22838 255C8.11594 255 10.4568 252.666 10.4568 249.788C10.4568 246.909 8.11594 244.575 5.22838 244.575C2.34082 244.575 0 246.909 0 249.788C0 252.666 2.34082 255 5.22838 255Z" fill="url(#paint42_linear)"/>
</g>
<mask id="mask21" mask-type="alpha" maskUnits="userSpaceOnUse" x="30" y="244" width="11" height="11">
<path d="M35.5095 255C38.397 255 40.7378 252.666 40.7378 249.788C40.7378 246.909 38.397 244.575 35.5095 244.575C32.6219 244.575 30.2811 246.909 30.2811 249.788C30.2811 252.666 32.6219 255 35.5095 255Z" fill="url(#paint43_linear)"/>
</mask>
<g mask="url(#mask21)">
<path d="M35.5095 255C38.397 255 40.7378 252.666 40.7378 249.788C40.7378 246.909 38.397 244.575 35.5095 244.575C32.6219 244.575 30.2811 246.909 30.2811 249.788C30.2811 252.666 32.6219 255 35.5095 255Z" fill="url(#paint44_linear)"/>
</g>
<mask id="mask22" mask-type="alpha" maskUnits="userSpaceOnUse" x="60" y="244" width="12" height="11">
<path d="M65.7905 255C68.6781 255 71.0189 252.666 71.0189 249.788C71.0189 246.909 68.6781 244.575 65.7905 244.575C62.903 244.575 60.5621 246.909 60.5621 249.788C60.5621 252.666 62.903 255 65.7905 255Z" fill="url(#paint45_linear)"/>
</mask>
<g mask="url(#mask22)">
<path d="M65.7905 255C68.6781 255 71.0189 252.666 71.0189 249.788C71.0189 246.909 68.6781 244.575 65.7905 244.575C62.903 244.575 60.5621 246.909 60.5621 249.788C60.5621 252.666 62.903 255 65.7905 255Z" fill="url(#paint46_linear)"/>
</g>
<mask id="mask23" mask-type="alpha" maskUnits="userSpaceOnUse" x="90" y="244" width="12" height="11">
<path d="M96.0716 255C98.9592 255 101.3 252.666 101.3 249.788C101.3 246.909 98.9592 244.575 96.0716 244.575C93.184 244.575 90.8432 246.909 90.8432 249.788C90.8432 252.666 93.184 255 96.0716 255Z" fill="url(#paint47_linear)"/>
</mask>
<g mask="url(#mask23)">
<path d="M96.0716 255C98.9592 255 101.3 252.666 101.3 249.788C101.3 246.909 98.9592 244.575 96.0716 244.575C93.184 244.575 90.8432 246.909 90.8432 249.788C90.8432 252.666 93.184 255 96.0716 255Z" fill="url(#paint48_linear)"/>
</g>
<mask id="mask24" mask-type="alpha" maskUnits="userSpaceOnUse" x="121" y="244" width="11" height="11">
<path d="M126.353 255C129.24 255 131.581 252.666 131.581 249.788C131.581 246.909 129.24 244.575 126.353 244.575C123.465 244.575 121.124 246.909 121.124 249.788C121.124 252.666 123.465 255 126.353 255Z" fill="url(#paint49_linear)"/>
</mask>
<g mask="url(#mask24)">
<path d="M126.353 255C129.24 255 131.581 252.666 131.581 249.788C131.581 246.909 129.24 244.575 126.353 244.575C123.465 244.575 121.124 246.909 121.124 249.788C121.124 252.666 123.465 255 126.353 255Z" fill="url(#paint50_linear)"/>
</g>
</g>
<defs>
<linearGradient id="paint0_linear" x1="1318.01" y1="742.124" x2="1499.15" y2="151.875" gradientUnits="userSpaceOnUse">
<stop stop-color="#F3F7FF"/>
<stop offset="1" stop-color="#DEEEFE"/>
</linearGradient>
<linearGradient id="paint1_linear" x1="54.996" y1="271.134" x2="-16.4057" y2="89.3301" gradientUnits="userSpaceOnUse">
<stop/>
<stop offset="1" stop-color="white"/>
</linearGradient>
<linearGradient id="paint2_linear" x1="54.996" y1="271.134" x2="-16.4057" y2="89.3301" gradientUnits="userSpaceOnUse">
<stop stop-color="#97C3F9"/>
<stop offset="1" stop-color="#93C1F9"/>
</linearGradient>
<linearGradient id="paint3_linear" x1="81.2005" y1="260.843" x2="9.79889" y2="79.0388" gradientUnits="userSpaceOnUse">
<stop/>
<stop offset="1" stop-color="white"/>
</linearGradient>
<linearGradient id="paint4_linear" x1="81.2005" y1="260.843" x2="9.79889" y2="79.0388" gradientUnits="userSpaceOnUse">
<stop stop-color="#97C3F9"/>
<stop offset="1" stop-color="#93C1F9"/>
</linearGradient>
<linearGradient id="paint5_linear" x1="107.405" y1="250.551" x2="36.0033" y2="68.7475" gradientUnits="userSpaceOnUse">
<stop/>
<stop offset="1" stop-color="white"/>
</linearGradient>
<linearGradient id="paint6_linear" x1="107.405" y1="250.551" x2="36.0033" y2="68.7475" gradientUnits="userSpaceOnUse">
<stop stop-color="#97C3F9"/>
<stop offset="1" stop-color="#93C1F9"/>
</linearGradient>
<linearGradient id="paint7_linear" x1="133.609" y1="240.259" x2="62.2075" y2="58.4556" gradientUnits="userSpaceOnUse">
<stop/>
<stop offset="1" stop-color="white"/>
</linearGradient>
<linearGradient id="paint8_linear" x1="133.609" y1="240.259" x2="62.2075" y2="58.4556" gradientUnits="userSpaceOnUse">
<stop stop-color="#97C3F9"/>
<stop offset="1" stop-color="#93C1F9"/>
</linearGradient>
<linearGradient id="paint9_linear" x1="159.813" y1="229.968" x2="88.4119" y2="48.1641" gradientUnits="userSpaceOnUse">
<stop/>
<stop offset="1" stop-color="white"/>
</linearGradient>
<linearGradient id="paint10_linear" x1="159.813" y1="229.968" x2="88.4119" y2="48.1641" gradientUnits="userSpaceOnUse">
<stop stop-color="#97C3F9"/>
<stop offset="1" stop-color="#93C1F9"/>
</linearGradient>
<linearGradient id="paint11_linear" x1="46.0538" y1="274.645" x2="-25.3466" y2="92.843" gradientUnits="userSpaceOnUse">
<stop/>
<stop offset="1" stop-color="white"/>
</linearGradient>
<linearGradient id="paint12_linear" x1="46.0538" y1="274.645" x2="-25.3466" y2="92.843" gradientUnits="userSpaceOnUse">
<stop stop-color="#97C3F9"/>
<stop offset="1" stop-color="#93C1F9"/>
</linearGradient>
<linearGradient id="paint13_linear" x1="72.2581" y1="264.354" x2="0.857718" y2="82.5511" gradientUnits="userSpaceOnUse">
<stop/>
<stop offset="1" stop-color="white"/>
</linearGradient>
<linearGradient id="paint14_linear" x1="72.2581" y1="264.354" x2="0.857718" y2="82.5511" gradientUnits="userSpaceOnUse">
<stop stop-color="#97C3F9"/>
<stop offset="1" stop-color="#93C1F9"/>
</linearGradient>
<linearGradient id="paint15_linear" x1="98.4624" y1="254.062" x2="27.0621" y2="72.2597" gradientUnits="userSpaceOnUse">
<stop/>
<stop offset="1" stop-color="white"/>
</linearGradient>
<linearGradient id="paint16_linear" x1="98.4624" y1="254.062" x2="27.0621" y2="72.2597" gradientUnits="userSpaceOnUse">
<stop stop-color="#97C3F9"/>
<stop offset="1" stop-color="#93C1F9"/>
</linearGradient>
<linearGradient id="paint17_linear" x1="124.667" y1="243.771" x2="53.2663" y2="61.9683" gradientUnits="userSpaceOnUse">
<stop/>
<stop offset="1" stop-color="white"/>
</linearGradient>
<linearGradient id="paint18_linear" x1="124.667" y1="243.771" x2="53.2663" y2="61.9683" gradientUnits="userSpaceOnUse">
<stop stop-color="#97C3F9"/>
<stop offset="1" stop-color="#93C1F9"/>
</linearGradient>
<linearGradient id="paint19_linear" x1="150.871" y1="233.479" x2="79.4707" y2="51.6769" gradientUnits="userSpaceOnUse">
<stop/>
<stop offset="1" stop-color="white"/>
</linearGradient>
<linearGradient id="paint20_linear" x1="150.871" y1="233.479" x2="79.4707" y2="51.6769" gradientUnits="userSpaceOnUse">
<stop stop-color="#97C3F9"/>
<stop offset="1" stop-color="#93C1F9"/>
</linearGradient>
<linearGradient id="paint21_linear" x1="37.1113" y1="278.158" x2="-34.2903" y2="96.3543" gradientUnits="userSpaceOnUse">
<stop/>
<stop offset="1" stop-color="white"/>
</linearGradient>
<linearGradient id="paint22_linear" x1="37.1113" y1="278.158" x2="-34.2903" y2="96.3543" gradientUnits="userSpaceOnUse">
<stop stop-color="#97C3F9"/>
<stop offset="1" stop-color="#93C1F9"/>
</linearGradient>
<linearGradient id="paint23_linear" x1="63.3157" y1="267.867" x2="-8.0859" y2="86.0627" gradientUnits="userSpaceOnUse">
<stop/>
<stop offset="1" stop-color="white"/>
</linearGradient>
<linearGradient id="paint24_linear" x1="63.3157" y1="267.867" x2="-8.0859" y2="86.0627" gradientUnits="userSpaceOnUse">
<stop stop-color="#97C3F9"/>
<stop offset="1" stop-color="#93C1F9"/>
</linearGradient>
<linearGradient id="paint25_linear" x1="89.5201" y1="257.575" x2="18.1185" y2="75.7713" gradientUnits="userSpaceOnUse">
<stop/>
<stop offset="1" stop-color="white"/>
</linearGradient>
<linearGradient id="paint26_linear" x1="89.5201" y1="257.575" x2="18.1185" y2="75.7713" gradientUnits="userSpaceOnUse">
<stop stop-color="#97C3F9"/>
<stop offset="1" stop-color="#93C1F9"/>
</linearGradient>
<linearGradient id="paint27_linear" x1="115.724" y1="247.283" x2="44.3227" y2="65.4796" gradientUnits="userSpaceOnUse">
<stop/>
<stop offset="1" stop-color="white"/>
</linearGradient>
<linearGradient id="paint28_linear" x1="115.724" y1="247.283" x2="44.3227" y2="65.4796" gradientUnits="userSpaceOnUse">
<stop stop-color="#97C3F9"/>
<stop offset="1" stop-color="#93C1F9"/>
</linearGradient>
<linearGradient id="paint29_linear" x1="141.929" y1="236.992" x2="70.5271" y2="55.1881" gradientUnits="userSpaceOnUse">
<stop/>
<stop offset="1" stop-color="white"/>
</linearGradient>
<linearGradient id="paint30_linear" x1="141.929" y1="236.992" x2="70.5271" y2="55.1881" gradientUnits="userSpaceOnUse">
<stop stop-color="#97C3F9"/>
<stop offset="1" stop-color="#93C1F9"/>
</linearGradient>
<linearGradient id="paint31_linear" x1="28.169" y1="281.67" x2="-43.2327" y2="99.8662" gradientUnits="userSpaceOnUse">
<stop/>
<stop offset="1" stop-color="white"/>
</linearGradient>
<linearGradient id="paint32_linear" x1="28.169" y1="281.67" x2="-43.2327" y2="99.8662" gradientUnits="userSpaceOnUse">
<stop stop-color="#97C3F9"/>
<stop offset="1" stop-color="#93C1F9"/>
</linearGradient>
<linearGradient id="paint33_linear" x1="54.3734" y1="271.379" x2="-17.0283" y2="89.5747" gradientUnits="userSpaceOnUse">
<stop/>
<stop offset="1" stop-color="white"/>
</linearGradient>
<linearGradient id="paint34_linear" x1="54.3734" y1="271.379" x2="-17.0283" y2="89.5747" gradientUnits="userSpaceOnUse">
<stop stop-color="#97C3F9"/>
<stop offset="1" stop-color="#93C1F9"/>
</linearGradient>
<linearGradient id="paint35_linear" x1="80.5777" y1="261.087" x2="9.17609" y2="79.2833" gradientUnits="userSpaceOnUse">
<stop/>
<stop offset="1" stop-color="white"/>
</linearGradient>
<linearGradient id="paint36_linear" x1="80.5777" y1="261.087" x2="9.17609" y2="79.2833" gradientUnits="userSpaceOnUse">
<stop stop-color="#97C3F9"/>
<stop offset="1" stop-color="#93C1F9"/>
</linearGradient>
<linearGradient id="paint37_linear" x1="106.782" y1="250.796" x2="35.3804" y2="68.9916" gradientUnits="userSpaceOnUse">
<stop/>
<stop offset="1" stop-color="white"/>
</linearGradient>
<linearGradient id="paint38_linear" x1="106.782" y1="250.796" x2="35.3804" y2="68.9916" gradientUnits="userSpaceOnUse">
<stop stop-color="#97C3F9"/>
<stop offset="1" stop-color="#93C1F9"/>
</linearGradient>
<linearGradient id="paint39_linear" x1="132.986" y1="240.504" x2="61.5847" y2="58.7001" gradientUnits="userSpaceOnUse">
<stop/>
<stop offset="1" stop-color="white"/>
</linearGradient>
<linearGradient id="paint40_linear" x1="132.986" y1="240.504" x2="61.5847" y2="58.7001" gradientUnits="userSpaceOnUse">
<stop stop-color="#97C3F9"/>
<stop offset="1" stop-color="#93C1F9"/>
</linearGradient>
<linearGradient id="paint41_linear" x1="19.2266" y1="285.182" x2="-52.1751" y2="103.378" gradientUnits="userSpaceOnUse">
<stop/>
<stop offset="1" stop-color="white"/>
</linearGradient>
<linearGradient id="paint42_linear" x1="19.2266" y1="285.182" x2="-52.1751" y2="103.378" gradientUnits="userSpaceOnUse">
<stop stop-color="#97C3F9"/>
<stop offset="1" stop-color="#93C1F9"/>
</linearGradient>
<linearGradient id="paint43_linear" x1="45.431" y1="274.89" x2="-25.9706" y2="93.0867" gradientUnits="userSpaceOnUse">
<stop/>
<stop offset="1" stop-color="white"/>
</linearGradient>
<linearGradient id="paint44_linear" x1="45.431" y1="274.89" x2="-25.9706" y2="93.0867" gradientUnits="userSpaceOnUse">
<stop stop-color="#97C3F9"/>
<stop offset="1" stop-color="#93C1F9"/>
</linearGradient>
<linearGradient id="paint45_linear" x1="71.6353" y1="264.599" x2="0.233749" y2="82.7954" gradientUnits="userSpaceOnUse">
<stop/>
<stop offset="1" stop-color="white"/>
</linearGradient>
<linearGradient id="paint46_linear" x1="71.6353" y1="264.599" x2="0.233749" y2="82.7954" gradientUnits="userSpaceOnUse">
<stop stop-color="#97C3F9"/>
<stop offset="1" stop-color="#93C1F9"/>
</linearGradient>
<linearGradient id="paint47_linear" x1="97.8397" y1="254.307" x2="26.438" y2="72.5037" gradientUnits="userSpaceOnUse">
<stop/>
<stop offset="1" stop-color="white"/>
</linearGradient>
<linearGradient id="paint48_linear" x1="97.8397" y1="254.307" x2="26.438" y2="72.5037" gradientUnits="userSpaceOnUse">
<stop stop-color="#97C3F9"/>
<stop offset="1" stop-color="#93C1F9"/>
</linearGradient>
<linearGradient id="paint49_linear" x1="124.044" y1="244.016" x2="52.6424" y2="62.2122" gradientUnits="userSpaceOnUse">
<stop/>
<stop offset="1" stop-color="white"/>
</linearGradient>
<linearGradient id="paint50_linear" x1="124.044" y1="244.016" x2="52.6424" y2="62.2122" gradientUnits="userSpaceOnUse">
<stop stop-color="#97C3F9"/>
<stop offset="1" stop-color="#93C1F9"/>
</linearGradient>
<clipPath id="clip0">
<rect width="778.734" height="557.403" fill="white" transform="translate(1693.04 791.609) rotate(-159.843)"/>
</clipPath>
</defs>
</svg>
